<svg width="19" height="15" viewBox="0 0 19 15" fill="none" xmlns="http://www.w3.org/2000/svg">
<path d="M15.459 14C17.3223 14 18.834 12.4883 18.834 10.625V3.875C18.834 2.01172 17.3223 0.5 15.459 0.5H12.5059C12.2598 0.5 12.084 0.710938 12.084 0.921875V2.32812C12.084 2.57422 12.2598 2.75 12.5059 2.75H15.459C16.0566 2.75 16.584 3.27734 16.584 3.875V10.625C16.584 11.2578 16.0566 11.75 15.459 11.75H12.5059C12.2598 11.75 12.084 11.9609 12.084 12.1719V13.5781C12.084 13.8242 12.2598 14 12.5059 14H15.459ZM13.8066 6.93359L7.90039 1.02734C7.37305 0.5 6.45898 0.886719 6.45898 1.625V5H1.67773C1.18555 5 0.833984 5.38672 0.833984 5.84375V9.21875C0.833984 9.71094 1.18555 10.0625 1.67773 10.0625H6.45898V13.4375C6.45898 14.2109 7.37305 14.5625 7.90039 14.0352L13.8066 8.12891C14.123 7.8125 14.123 7.28516 13.8066 6.93359Z" fill="#E63A28"/>
</svg>
