<svg width="27" height="22" viewBox="0 0 27 22" fill="none" xmlns="http://www.w3.org/2000/svg">
<path fill-rule="evenodd" clip-rule="evenodd" d="M12.1908 0C18.5687 0 23.7574 4.25743 23.7574 9.49208C23.7574 11.3465 23.1054 13.0777 21.981 14.5414L25.5203 17.4467C26.5232 18.2692 26.5232 19.6055 25.5203 20.43C24.516 21.2524 22.8881 21.2524 21.8852 20.43L18.346 17.5247C16.5615 18.4482 14.4517 18.9831 12.1908 18.9831C5.81286 18.9831 0.625488 14.7257 0.625488 9.49208C0.625488 4.25743 5.81286 0 12.1908 0ZM12.1908 16.8739C17.1514 16.8739 21.1873 13.5621 21.1873 9.49208C21.1873 5.41999 17.1514 2.10924 12.1908 2.10924C7.23017 2.10924 3.19555 5.41999 3.19555 9.49208C3.19555 13.5621 7.23017 16.8739 12.1908 16.8739Z" fill="#E63A28"/>
</svg>
